M48
; DRILL file {KiCad 9.0.1} date 2025-11-23T11:55:25-0700
; FORMAT={-:-/ absolute / metric / decimal}
; #@! TF.CreationDate,2025-11-23T11:55:25-07:00
; #@! TF.GenerationSoftware,Kicad,Pcbnew,9.0.1
; #@! TF.FileFunction,Plated,1,2,PTH
FMAT,2
METRIC
; #@! TA.AperFunction,Plated,PTH,ViaDrill
T1C0.300
; #@! TA.AperFunction,Plated,PTH,ComponentDrill
T2C0.400
; #@! TA.AperFunction,Plated,PTH,ComponentDrill
T3C0.600
; #@! TA.AperFunction,Plated,PTH,ComponentDrill
T4C0.750
; #@! TA.AperFunction,Plated,PTH,ComponentDrill
T5C1.000
; #@! TA.AperFunction,Plated,PTH,ComponentDrill
T6C4.300
%
G90
G05
T1
X57.043Y-117.692
X59.614Y-48.247
X59.614Y-88.247
X59.614Y-128.247
X61.615Y-113.12
X62.604Y-147.072
X62.604Y-147.072
X64.155Y-100.42
X64.204Y-64.297
X64.204Y-104.297
X64.204Y-144.297
X64.409Y-116.93
X65.679Y-131.072
X66.441Y-61.472
X67.965Y-68.924
X68.414Y-48.247
X68.414Y-88.247
X68.414Y-128.247
X68.473Y-95.848
X69.108Y-120.613
X70.505Y-68.924
X70.791Y-140.52
X73.004Y-64.297
X73.004Y-104.297
X73.004Y-144.616
X73.045Y-68.924
X73.553Y-87.212
X74.569Y-101.944
X74.823Y-61.472
X76.093Y-87.212
X77.109Y-101.944
X78.633Y-87.212
X78.633Y-120.74
X79.614Y-48.247
X79.614Y-88.247
X79.614Y-128.247
X79.649Y-101.944
X80.919Y-112.358
X81.173Y-120.74
X81.437Y-136.996
X82.697Y-147.072
X83.459Y-116.168
X83.713Y-120.74
X84.204Y-64.297
X84.204Y-104.297
X84.204Y-144.297
X84.221Y-99.658
X85.679Y-131.072
X85.745Y-135.472
X86.441Y-61.472
X87.523Y-95.086
X88.414Y-48.247
X88.414Y-88.247
X88.414Y-128.247
X88.793Y-68.924
X89.108Y-120.613
X90.571Y-78.83
X91.333Y-68.924
X93.004Y-64.297
X93.004Y-104.297
X93.004Y-144.616
X93.873Y-68.924
X94.823Y-61.472
X94.889Y-101.944
X96.921Y-83.402
X97.429Y-101.944
X98.953Y-120.74
X98.953Y-139.536
X99.614Y-48.247
X99.614Y-88.247
X99.614Y-128.247
X99.969Y-101.944
X99.969Y-111.596
X101.437Y-136.996
X101.493Y-120.74
X102.604Y-147.072
X102.604Y-147.072
X102.763Y-115.406
X104.033Y-120.74
X104.204Y-64.297
X104.204Y-104.297
X104.204Y-144.297
X104.287Y-98.896
X105.557Y-135.472
X105.679Y-131.072
X106.441Y-61.472
X106.827Y-94.324
X108.097Y-68.924
X108.414Y-48.247
X108.414Y-88.247
X108.414Y-128.247
X109.108Y-120.613
X109.875Y-78.068
X110.637Y-68.924
X113.004Y-64.297
X113.004Y-104.297
X113.004Y-144.297
X113.177Y-68.924
X114.701Y-101.944
X114.823Y-61.472
X115.971Y-82.64
X117.241Y-101.944
X118.765Y-139.536
X119.273Y-110.834
X119.273Y-120.74
X119.614Y-48.247
X119.614Y-88.247
X119.614Y-128.247
X119.781Y-101.944
X121.437Y-136.996
X121.813Y-120.74
X122.067Y-114.644
X122.604Y-147.072
X122.604Y-147.072
X124.099Y-98.134
X124.204Y-64.297
X124.204Y-104.297
X124.204Y-144.297
X124.353Y-120.74
X125.623Y-135.472
X125.679Y-131.072
X126.131Y-93.562
X126.441Y-61.472
X128.414Y-48.247
X128.414Y-88.247
X128.414Y-128.247
X128.417Y-68.924
X129.108Y-120.613
X129.179Y-77.306
X130.957Y-68.924
X133.004Y-64.297
X133.004Y-104.297
X133.004Y-144.297
X133.497Y-68.924
X134.513Y-101.944
X134.823Y-61.472
X135.275Y-81.878
X137.053Y-101.944
X138.577Y-110.072
X139.085Y-120.74
X139.085Y-139.536
X139.593Y-101.944
X139.614Y-48.247
X139.614Y-88.247
X139.614Y-128.247
X141.371Y-113.882
X141.371Y-136.996
X141.625Y-120.74
X142.604Y-147.072
X142.641Y-147.072
X143.911Y-67.072
X144.165Y-97.399
X144.165Y-120.74
X144.204Y-64.297
X144.204Y-104.297
X144.204Y-144.297
X145.181Y-92.8
X145.435Y-135.472
X145.679Y-131.072
X146.441Y-61.472
X148.229Y-76.544
X148.414Y-48.247
X148.414Y-88.247
X148.414Y-128.247
X148.737Y-45.472
X149.108Y-120.613
X149.753Y-68.416
X152.293Y-68.416
X153.004Y-64.297
X153.004Y-104.297
X153.004Y-144.297
X154.113Y-84.122
X154.579Y-81.116
X154.823Y-61.472
X154.833Y-68.416
X154.833Y-101.944
X155.891Y-85.9
X157.373Y-101.944
X157.881Y-109.31
X159.405Y-120.74
X159.614Y-88.247
X159.614Y-128.247
X159.913Y-101.944
X161.437Y-136.996
X161.945Y-120.74
X162.604Y-147.072
X163.977Y-67.072
X164.204Y-64.297
X164.204Y-104.297
X164.204Y-144.297
X164.231Y-96.61
X164.485Y-92.038
X164.485Y-120.74
X165.501Y-135.472
X165.679Y-131.072
X166.441Y-61.472
X167.533Y-75.782
X168.414Y-48.247
X168.414Y-88.247
X168.414Y-128.247
X168.803Y-45.472
X169.108Y-120.613
X172.105Y-80.354
X172.867Y-120.486
X172.867Y-126.582
X172.867Y-135.218
X173.004Y-64.297
X173.004Y-104.297
X173.004Y-144.297
X174.493Y-125.566
X176.169Y-64.606
X176.169Y-83.148
X176.47Y-86.403
X176.931Y-56.986
X176.931Y-92.546
X177.185Y-97.626
X177.295Y-74.774
X177.693Y-78.83
X178.963Y-107.692
X178.963Y-117.692
X179.471Y-131.154
X179.878Y-127.699
X180.048Y-128.568
X180.233Y-136.574
X180.995Y-121.248
X181.898Y-106.507
X182.011Y-117.438
X182.519Y-126.328
X182.773Y-94.578
X183.172Y-82.64
X183.401Y-134.322
X183.535Y-78.068
X183.789Y-111.342
X183.795Y-126.321
X184.043Y-89.498
X184.043Y-91.53
X184.043Y-101.182
X184.297Y-76.727
X184.309Y-55.272
X184.805Y-119.216
X185.059Y-97.88
X185.307Y-109.557
X186.837Y-130.392
X186.837Y-133.448
X186.837Y-136.6
X186.837Y-138.124
X187.091Y-90.514
X187.345Y-110.072
X187.385Y-112.635
X188.088Y-106.933
X188.107Y-77.306
X188.107Y-87.212
X188.107Y-97.118
X188.107Y-116.93
X188.615Y-74.766
X188.869Y-78.068
X188.869Y-87.974
X188.869Y-97.88
X188.869Y-110.834
X188.888Y-106.933
X188.907Y-116.93
X189.631Y-78.83
X189.631Y-88.736
X189.631Y-98.388
X189.688Y-106.933
X189.707Y-116.93
X189.885Y-51.652
X189.885Y-53.684
X190.011Y-128.512
X190.88Y-132.91
X190.901Y-105.754
X190.901Y-131.408
X191.155Y-81.116
X191.155Y-85.18
X191.155Y-91.53
X191.663Y-100.166
X191.917Y-54.7
X192.425Y-92.8
X192.552Y-99.277
X193.441Y-98.388
X193.605Y-131.408
X193.695Y-126.074
X194.203Y-97.626
X194.203Y-106.516
X194.711Y-130.646
X195.219Y-78.068
X195.219Y-79.084
X195.219Y-81.624
X195.219Y-129.884
X195.981Y-71.464
X196.489Y-59.272
X196.489Y-86.958
X196.489Y-89.244
T2
X195.284Y-109.891
X195.284Y-110.741
X195.284Y-111.591
X195.284Y-112.441
X195.284Y-113.291
X195.284Y-114.141
X195.284Y-114.991
X195.284Y-115.841
X196.634Y-109.891
X196.634Y-110.741
X196.634Y-111.591
X196.634Y-112.441
X196.634Y-113.291
X196.634Y-114.141
X196.634Y-114.991
X196.634Y-115.841
T4
X193.441Y-135.218
X193.441Y-137.218
T5
X49.309Y-72.272
X49.309Y-74.812
X49.309Y-77.352
X49.309Y-79.892
X49.309Y-82.432
X49.309Y-84.972
X49.309Y-87.512
X49.309Y-90.052
X49.309Y-92.592
X49.309Y-95.132
X49.309Y-97.672
X49.309Y-100.212
X49.309Y-102.752
X49.309Y-105.292
X49.309Y-107.832
X49.309Y-110.372
X49.309Y-112.912
X49.309Y-115.452
X49.309Y-117.992
X49.309Y-120.532
X51.849Y-72.272
X51.849Y-74.812
X51.849Y-77.352
X51.849Y-79.892
X51.849Y-82.432
X51.849Y-84.972
X51.849Y-87.512
X51.849Y-90.052
X51.849Y-92.592
X51.849Y-95.132
X51.849Y-97.672
X51.849Y-100.212
X51.849Y-102.752
X51.849Y-105.292
X51.849Y-107.832
X51.849Y-110.372
X51.849Y-112.912
X51.849Y-115.452
X51.849Y-117.992
X51.849Y-120.532
T6
X50.309Y-43.272
X50.309Y-149.272
X197.309Y-43.272
X197.309Y-149.272
T3
G00X195.514Y-108.541
M15
G01X197.014Y-108.541
M16
G05
G00X195.514Y-117.191
M15
G01X197.014Y-117.191
M16
G05
G00X199.244Y-108.541
M15
G01X200.044Y-108.541
M16
G05
G00X199.244Y-117.191
M15
G01X200.044Y-117.191
M16
G05
M30
